<svg height="512pt" viewBox="-48 0 512 512" width="512pt" xmlns="http://www.w3.org/2000/svg"><path d="m208 512c-114.6875 0-208-93.3125-208-208v-96c0-114.6875 93.3125-208 208-208s208 93.3125 208 208v96c0 114.6875-93.3125 208-208 208zm0 0" fill="#f9ddaa"/><path d="m208 0c-114.6875 0-208 93.3125-208 208v40.433594l3.199219.910156c25.410156 7.3125 51.25 11.007812 76.800781 11.007812 67.425781 0 130.785156-23.632812 181.472656-67.085937 37.007813 31.277344 81.96875 52.910156 129.375 61.886719l2.71875.511718 22.433594.335938v-48c0-114.6875-93.3125-208-208-208zm0 0" fill="#f7ce8a"/><path d="m80 228.351562c-22.542969 0-45.40625-3.28125-67.96875-9.757812l-11.886719-3.410156.09375-12.449219c2.867188-113.695313 94.113281-202.734375 207.761719-202.734375 114.6875 0 208 93.3125 208 208v16l-19.199219-.289062c-51.890625-9.824219-99.328125-36.09375-135.457031-74.621094-47.214844 50.589844-112.320312 79.261718-181.34375 79.261718zm0 0" fill="#c59969"/><path d="m288 64h32v32h-32zm0 0" fill="#fff"/><path d="m336 128h32v32h-32zm0 0" fill="#fff"/><path d="m208 480c-114.6875 0-208-93.3125-208-208v32c0 114.6875 93.3125 208 208 208s208-93.3125 208-208v-32c0 114.6875-93.3125 208-208 208zm0 0" fill="#f7ce8a"/><g fill="#57565c"><path d="m160 400h96v32h-96zm0 0"/><path d="m272 351.902344c-19.136719 0-38.273438-6.191406-56.878906-18.589844l17.742187-26.625c26.6875 17.777344 51.570313 17.777344 78.257813 0l17.742187 26.625c-18.589843 12.398438-37.726562 18.589844-56.863281 18.589844zm0 0"/><path d="m144 351.902344c-19.136719 0-38.273438-6.191406-56.878906-18.589844l17.742187-26.625c26.6875 17.777344 51.570313 17.777344 78.257813 0l17.742187 26.625c-18.589843 12.398438-37.726562 18.589844-56.863281 18.589844zm0 0"/><path d="m280.832031 270.316406 14.3125-28.621094 63.996094 32-14.3125 28.621094zm0 0"/><path d="m56.839844 273.683594 63.996094-31.996094 14.308593 28.617188-63.996093 32zm0 0"/></g></svg>